<svg width="198" height="22" viewBox="0 0 198 22" fill="none" xmlns="http://www.w3.org/2000/svg">
<g clip-path="url(#clip0_724_94774)">
<path d="M191.232 7.64062C191.232 8.02151 191.307 8.39866 191.453 8.75056C191.599 9.10245 191.813 9.42218 192.082 9.69151C192.351 9.96084 192.671 10.1745 193.023 10.3202C193.375 10.466 193.752 10.541 194.133 10.541C194.514 10.541 194.891 10.466 195.243 10.3202C195.595 10.1745 195.914 9.96084 196.184 9.69151C196.453 9.42218 196.667 9.10245 196.812 8.75056C196.958 8.39866 197.033 8.02151 197.033 7.64062C197.033 7.25974 196.958 6.88259 196.812 6.53069C196.667 6.1788 196.453 5.85907 196.184 5.58974C195.914 5.32041 195.595 5.10677 195.243 4.96101C194.891 4.81526 194.514 4.74023 194.133 4.74023C193.752 4.74023 193.375 4.81526 193.023 4.96101C192.671 5.10677 192.351 5.32041 192.082 5.58974C191.813 5.85907 191.599 6.1788 191.453 6.53069C191.307 6.88259 191.232 7.25974 191.232 7.64062Z" stroke="white" stroke-linecap="round" stroke-linejoin="round"/>
<path d="M194.777 6.9157C194.589 6.75061 194.345 6.66428 194.095 6.67467C193.845 6.68505 193.609 6.79135 193.436 6.97145C193.262 7.15121 193.166 7.39114 193.166 7.64079C193.166 7.89045 193.262 8.13038 193.436 8.31014C193.609 8.49024 193.845 8.59654 194.095 8.60692C194.345 8.61731 194.589 8.53098 194.777 8.36589" stroke="white" stroke-linecap="round" stroke-linejoin="round"/>
</g>
<g clip-path="url(#clip1_724_94774)">
<path d="M89.9121 6.86719C89.9121 7.24807 89.9871 7.62523 90.1329 7.97712C90.2786 8.32901 90.4923 8.64875 90.7616 8.91807C91.0309 9.1874 91.3507 9.40104 91.7026 9.5468C92.0545 9.69256 92.4316 9.76758 92.8125 9.76758C93.1934 9.76758 93.5705 9.69256 93.9224 9.5468C94.2743 9.40104 94.5941 9.1874 94.8634 8.91807C95.1327 8.64875 95.3464 8.32901 95.4921 7.97712C95.6379 7.62523 95.7129 7.24807 95.7129 6.86719C95.7129 6.4863 95.6379 6.10915 95.4921 5.75726C95.3464 5.40536 95.1327 5.08563 94.8634 4.8163C94.5941 4.54698 94.2743 4.33333 93.9224 4.18758C93.5705 4.04182 93.1934 3.9668 92.8125 3.9668C92.4316 3.9668 92.0545 4.04182 91.7026 4.18758C91.3507 4.33333 91.0309 4.54698 90.7616 4.8163C90.4923 5.08563 90.2786 5.40536 90.1329 5.75726C89.9871 6.10915 89.9121 6.4863 89.9121 6.86719Z" stroke="white" stroke-linecap="round" stroke-linejoin="round"/>
<path d="M92.168 7.83398V5.90039H92.8125C92.9834 5.90039 93.1474 5.9683 93.2683 6.08917C93.3891 6.21004 93.457 6.37398 93.457 6.54492C93.457 6.71586 93.3891 6.8798 93.2683 7.00067C93.1474 7.12155 92.9834 7.18945 92.8125 7.18945H92.168" stroke="white" stroke-linecap="round" stroke-linejoin="round"/>
<path d="M93.457 7.83398L92.8125 7.18945" stroke="white" stroke-linecap="round" stroke-linejoin="round"/>
</g>
<path d="M7.92773 0.358398L10.8173 3.17354L13.7069 0.358398H7.92773Z" fill="#E21860"/>
<path d="M16.8898 3.52197L7.10319 13.0564L0.985749 7.09974L0 8.05381L7.10319 14.974L17.8788 4.47604L16.8898 3.52197Z" fill="white"/>
<path d="M16.8898 6.92676L7.10319 16.4612L0.985749 10.5045L0 11.4586L7.10319 18.3788L17.8788 7.88083L16.8898 6.92676Z" fill="white"/>
<path d="M16.8898 10.3569L7.10319 19.8914L0.985749 13.9347L0 14.8888L7.10319 21.8089L17.8788 11.311L16.8898 10.3569Z" fill="white"/>
<path d="M3.02449 6.69688L7.09961 10.667L7.61213 10.1677L3.53701 6.19756L3.02449 6.69688Z" fill="white"/>
<path d="M4.5616 5.20567L8.63672 9.17578L9.14924 8.67647L5.07412 4.70635L4.5616 5.20567Z" fill="white"/>
<path d="M7.09089 4.67372L10.1729 7.67627L10.6854 7.17695L7.60341 4.1744L7.09089 4.67372Z" fill="white"/>
<path d="M27.0569 7.34748V3.61279H23.2202L27.0569 7.34748Z" fill="#E21860"/>
<path d="M27.0537 7.34766H23.2202V15.8025H27.0537V7.34766Z" fill="#E21860"/>
<path d="M33.2226 12.9183H38.2448V15.8024H29.3892V0.358398H33.2226V12.9183Z" fill="white"/>
<path d="M51.3619 10.6053H42.6835C42.7415 11.3617 42.9927 11.9423 43.4341 12.3408C43.8754 12.7426 44.4166 12.9403 45.0609 12.9403C46.0176 12.9403 46.6812 12.548 47.0581 11.7602H51.1397C50.9303 12.5605 50.5534 13.2824 50.0057 13.9226C49.4613 14.5628 48.7751 15.065 47.9537 15.429C47.1322 15.7931 46.2109 15.9751 45.1962 15.9751C43.9688 15.9751 42.88 15.7209 41.9232 15.2093C40.9665 14.7009 40.2191 13.9728 39.6811 13.025C39.1432 12.0772 38.8726 10.9725 38.8726 9.70459C38.8726 8.43668 39.1367 7.33197 39.6682 6.38417C40.1998 5.43638 40.9439 4.70827 41.9007 4.19985C42.8574 3.69143 43.9559 3.43408 45.1962 3.43408C46.4364 3.43408 47.4834 3.68202 48.424 4.17788C49.3647 4.67375 50.1024 5.37989 50.6339 6.2963C51.1654 7.21271 51.4296 8.2829 51.4296 9.50688C51.4296 9.85524 51.407 10.2193 51.3619 10.599V10.6053ZM47.5059 8.53084C47.5059 7.8906 47.2804 7.37904 46.8326 7.00244C46.3849 6.62269 45.8243 6.43439 45.1511 6.43439C44.4778 6.43439 43.9656 6.61641 43.5243 6.98047C43.0829 7.34452 42.8091 7.86236 42.706 8.53084H47.5059Z" fill="white"/>
<path d="M60.0735 3.96433C60.7371 4.31269 61.2493 4.77404 61.6101 5.34209V3.61597H65.4436V15.7804C65.4436 16.9008 65.2149 17.9176 64.7607 18.8278C64.3032 19.7379 63.6106 20.4629 62.6764 21.0027C61.7422 21.5425 60.5793 21.8124 59.1909 21.8124C57.3385 21.8124 55.8341 21.3856 54.6841 20.5351C53.5341 19.6845 52.8737 18.5296 52.7094 17.0734H56.4978C56.617 17.5379 56.9004 17.9082 57.3482 18.1781C57.796 18.448 58.3501 18.583 59.0072 18.583C59.7997 18.583 60.4311 18.3601 60.9014 17.9176C61.3717 17.472 61.6069 16.7627 61.6069 15.7867V14.0605C61.2332 14.6286 60.7178 15.0899 60.0606 15.4477C59.4035 15.8055 58.6335 15.9844 57.7509 15.9844C56.72 15.9844 55.7858 15.727 54.9483 15.2092C54.1107 14.6914 53.4503 13.957 52.9639 13.0029C52.4774 12.0488 52.2358 10.9473 52.2358 9.6919C52.2358 8.43654 52.4774 7.34124 52.9639 6.39345C53.4503 5.44565 54.1107 4.71755 54.9483 4.20913C55.7858 3.70071 56.72 3.44336 57.7509 3.44336C58.6335 3.44336 59.4067 3.61911 60.0703 3.96747L60.0735 3.96433ZM60.8144 7.50444C60.2829 6.96464 59.6386 6.69474 58.8751 6.69474C58.1117 6.69474 57.4674 6.9615 56.9359 7.49189C56.4043 8.02228 56.1402 8.75666 56.1402 9.68876C56.1402 10.6209 56.4043 11.3584 56.9359 11.9076C57.4674 12.4537 58.1117 12.7267 58.8751 12.7267C59.6386 12.7267 60.2829 12.4568 60.8144 11.917C61.346 11.3772 61.6101 10.6428 61.6101 9.71073C61.6101 8.77863 61.346 8.04425 60.8144 7.50444Z" fill="white"/>
<path d="M67.7398 6.3871C68.2262 5.43931 68.8866 4.7112 69.7241 4.20278C70.5617 3.69436 71.4959 3.43701 72.5268 3.43701C73.4094 3.43701 74.1826 3.61276 74.8462 3.96112C75.5098 4.30949 76.022 4.77083 76.3828 5.33888V3.61276H80.2162V15.8023H76.3828V14.0762C76.0091 14.6442 75.4904 15.1024 74.8236 15.4539C74.1568 15.8023 73.3837 15.978 72.5042 15.978C71.4862 15.978 70.5617 15.7207 69.7241 15.2029C68.8866 14.685 68.2262 13.9506 67.7398 12.9966C67.2533 12.0425 67.0117 10.9409 67.0117 9.68556C67.0117 8.4302 67.2533 7.3349 67.7398 6.3871ZM75.5871 7.50123C75.0556 6.96143 74.4113 6.69153 73.6478 6.69153C72.8843 6.69153 72.2401 6.95829 71.7085 7.48868C71.177 8.01907 70.9128 8.75345 70.9128 9.68556C70.9128 10.6177 71.177 11.3552 71.7085 11.9044C72.2401 12.4505 72.8843 12.7235 73.6478 12.7235C74.4113 12.7235 75.0556 12.4536 75.5871 11.9138C76.1186 11.374 76.3828 10.6396 76.3828 9.70752C76.3828 8.77542 76.1186 8.04104 75.5871 7.50123Z" fill="white"/>
<path d="M86.3852 0.358398V15.8024H82.5518V0.358398H86.3852Z" fill="white"/>
<path d="M100.613 15.4321C99.8273 15.0837 99.212 14.5942 98.7643 13.9696C98.3165 13.3451 98.0749 12.6452 98.0459 11.8732H99.7049C99.779 12.617 100.117 13.2666 100.713 13.8284C101.312 14.3902 102.185 14.6695 103.335 14.6695C104.395 14.6695 105.236 14.4027 105.858 13.8723C106.476 13.3419 106.789 12.6672 106.789 11.8512C106.789 11.1953 106.618 10.668 106.273 10.2663C105.929 9.86459 105.503 9.56645 104.994 9.37187C104.485 9.17415 103.783 8.96074 102.888 8.7285C101.841 8.45232 101.013 8.18242 100.398 7.91879C99.7855 7.65517 99.2604 7.25031 98.8287 6.69482C98.3938 6.14246 98.178 5.39238 98.178 4.44459C98.178 3.65685 98.3874 2.95699 98.8062 2.33559C99.2249 1.71732 99.8145 1.23087 100.578 0.88251C101.341 0.534148 102.214 0.358398 103.2 0.358398C104.65 0.358398 105.819 0.703622 106.708 1.39721C107.597 2.08765 108.11 2.9821 108.245 4.07426H106.541C106.434 3.44972 106.083 2.89108 105.487 2.40463C104.888 1.91818 104.083 1.67339 103.065 1.67339C102.124 1.67339 101.338 1.91818 100.71 2.40463C100.082 2.89422 99.7694 3.55956 99.7694 4.40379C99.7694 5.04402 99.9401 5.56186 100.285 5.95416C100.629 6.34645 101.058 6.6446 101.573 6.8486C102.089 7.05259 102.788 7.27228 103.67 7.50452C104.685 7.7807 105.51 8.05374 106.138 8.32364C106.766 8.59354 107.298 9.00467 107.729 9.55703C108.164 10.1094 108.38 10.8532 108.38 11.7853C108.38 12.4977 108.187 13.1756 107.797 13.8158C107.407 14.4561 106.834 14.9739 106.07 15.3662C105.307 15.7585 104.395 15.9562 103.335 15.9562C102.276 15.9562 101.396 15.7805 100.61 15.4321H100.613Z" fill="white"/>
<path d="M112.767 15.2254C111.849 14.7232 111.121 14.0108 110.593 13.085C110.062 12.1591 109.797 11.0795 109.797 9.83987C109.797 8.60021 110.068 7.5206 110.606 6.59477C111.144 5.66895 111.875 4.95653 112.803 4.45439C113.731 3.95224 114.768 3.70117 115.921 3.70117C117.075 3.70117 118.115 3.95224 119.049 4.45439C119.983 4.95653 120.715 5.67208 121.246 6.59477C121.778 7.5206 122.042 8.60021 122.042 9.83987C122.042 11.0795 121.771 12.1403 121.233 13.0724C120.695 14.0045 119.954 14.7232 119.014 15.2254C118.073 15.7275 117.026 15.9786 115.876 15.9786C114.726 15.9786 113.689 15.7275 112.771 15.2254H112.767ZM118.115 14.1112C118.801 13.7534 119.358 13.2168 119.787 12.495C120.212 11.7731 120.425 10.8881 120.425 9.83987C120.425 8.79165 120.215 7.90662 119.797 7.18479C119.378 6.46296 118.824 5.92629 118.138 5.56852C117.448 5.21074 116.701 5.03185 115.895 5.03185C115.09 5.03185 114.34 5.21074 113.653 5.56852C112.964 5.92629 112.416 6.46296 112.004 7.18479C111.592 7.90662 111.389 8.79165 111.389 9.83987C111.389 10.8881 111.595 11.7731 112.004 12.495C112.416 13.2168 112.961 13.7534 113.64 14.1112C114.32 14.469 115.064 14.6479 115.873 14.6479C116.681 14.6479 117.429 14.469 118.115 14.1112Z" fill="white"/>
<path d="M125.582 0.358398V15.8024H124.013V0.358398H125.582Z" fill="white"/>
<path d="M138.858 3.87695V15.8029H137.289V13.7064C136.931 14.4502 136.377 15.0183 135.63 15.4106C134.882 15.8029 134.045 16.0006 133.117 16.0006C131.651 16.0006 130.456 15.5612 129.528 14.6793C128.601 13.7974 128.137 12.5201 128.137 10.8442V3.87695H129.683V10.6716C129.683 11.9677 130.015 12.9595 130.682 13.6436C131.345 14.3278 132.254 14.6699 133.407 14.6699C134.56 14.6699 135.53 14.3058 136.232 13.5777C136.934 12.8496 137.285 11.7794 137.285 10.3672V3.87695H138.854H138.858Z" fill="white"/>
<path d="M143.586 5.16328V12.5699C143.586 13.298 143.728 13.8001 144.011 14.0763C144.295 14.3525 144.797 14.4906 145.513 14.4906H146.946V15.8024H145.264C144.156 15.8024 143.335 15.5514 142.797 15.0492C142.259 14.5471 141.988 13.7217 141.988 12.5699V5.16328H140.284V3.8734H141.988V0.358398H143.58V3.87654H146.943V5.16642H143.58L143.586 5.16328Z" fill="white"/>
<path d="M148.609 2.28223C148.383 2.06255 148.274 1.79578 148.274 1.47253C148.274 1.14927 148.387 0.885649 148.609 0.675376C148.834 0.465104 149.102 0.358398 149.418 0.358398C149.733 0.358398 150.001 0.465104 150.226 0.675376C150.452 0.885649 150.561 1.15241 150.561 1.47253C150.561 1.79264 150.448 2.06255 150.226 2.28223C150.001 2.50192 149.733 2.60863 149.418 2.60863C149.102 2.60863 148.834 2.49878 148.609 2.28223ZM150.2 4.85886V16.0002H148.631V4.85886H150.2Z" fill="white"/>
<path d="M155.122 15.2254C154.204 14.7232 153.476 14.0108 152.948 13.085C152.416 12.1591 152.152 11.0795 152.152 9.83987C152.152 8.60021 152.423 7.5206 152.961 6.59477C153.499 5.66895 154.23 4.95653 155.158 4.45439C156.086 3.95224 157.123 3.70117 158.276 3.70117C159.429 3.70117 160.47 3.95224 161.404 4.45439C162.338 4.95653 163.07 5.67208 163.601 6.59477C164.133 7.5206 164.397 8.60021 164.397 9.83987C164.397 11.0795 164.126 12.1403 163.588 13.0724C163.05 14.0045 162.309 14.7232 161.369 15.2254C160.428 15.7275 159.381 15.9786 158.231 15.9786C157.081 15.9786 156.044 15.7275 155.126 15.2254H155.122ZM160.47 14.1112C161.156 13.7534 161.713 13.2168 162.142 12.495C162.567 11.7731 162.78 10.8881 162.78 9.83987C162.78 8.79165 162.57 7.90662 162.152 7.18479C161.733 6.46296 161.179 5.92629 160.493 5.56852C159.803 5.21074 159.056 5.03185 158.25 5.03185C157.445 5.03185 156.695 5.21074 156.008 5.56852C155.319 5.92629 154.771 6.46296 154.359 7.18479C153.947 7.90662 153.744 8.79165 153.744 9.83987C153.744 10.8881 153.95 11.7731 154.359 12.495C154.771 13.2168 155.316 13.7534 155.995 14.1112C156.675 14.469 157.419 14.6479 158.228 14.6479C159.036 14.6479 159.784 14.469 160.47 14.1112Z" fill="white"/>
<path d="M175.698 4.97779C176.625 5.85968 177.089 7.13701 177.089 8.81291V15.8021H175.543V8.98552C175.543 7.68937 175.211 6.70077 174.544 6.01346C173.877 5.32929 172.972 4.98721 171.819 4.98721C170.666 4.98721 169.696 5.35126 168.994 6.07937C168.292 6.80748 167.94 7.87767 167.94 9.28995V15.799H166.372V3.87622H167.94V5.90676C168.33 5.17865 168.891 4.62315 169.622 4.23713C170.353 3.85111 171.184 3.65967 172.112 3.65967C173.578 3.65967 174.773 4.09904 175.701 4.98093L175.698 4.97779Z" fill="white"/>
<path d="M180.44 15.0276C179.551 14.3937 179.055 13.5306 178.948 12.4385H180.562C180.636 13.1069 180.962 13.6499 181.538 14.0673C182.115 14.4816 182.888 14.6887 183.858 14.6887C184.708 14.6887 185.378 14.491 185.865 14.0987C186.351 13.7064 186.593 13.2168 186.593 12.6362C186.593 12.2282 186.457 11.8924 186.19 11.6319C185.919 11.3683 185.581 11.1611 185.169 11.0105C184.756 10.8567 184.199 10.6935 183.497 10.5178C182.585 10.2855 181.844 10.0533 181.277 9.8179C180.71 9.58566 180.227 9.24044 179.831 8.77909C179.435 8.32089 179.238 7.70576 179.238 6.93372C179.238 6.34998 179.419 5.81331 179.776 5.31745C180.134 4.82158 180.643 4.42928 181.3 4.13741C181.957 3.84554 182.704 3.70117 183.542 3.70117C184.856 3.70117 185.919 4.02443 186.725 4.67407C187.533 5.32372 187.965 6.21503 188.026 7.35113H186.457C186.412 6.65126 186.132 6.08635 185.617 5.65953C185.101 5.22957 184.396 5.01616 183.497 5.01616C182.704 5.01616 182.063 5.19819 181.567 5.56224C181.074 5.92629 180.826 6.37822 180.826 6.91803C180.826 7.38565 180.971 7.76539 181.264 8.06354C181.554 8.36169 181.918 8.59393 182.353 8.7634C182.788 8.92974 183.371 9.11804 184.102 9.3189C184.985 9.55114 185.687 9.7771 186.209 9.99679C186.731 10.2165 187.182 10.5366 187.556 10.9571C187.93 11.3808 188.123 11.9395 188.139 12.6393C188.139 13.2796 187.959 13.8507 187.601 14.3529C187.243 14.855 186.741 15.2536 186.1 15.5423C185.455 15.8342 184.718 15.9786 183.88 15.9786C182.476 15.9786 181.329 15.6616 180.437 15.0276H180.44Z" fill="white"/>
<defs>
<clipPath id="clip0_724_94774">
<rect width="7.73438" height="7.73438" fill="white" transform="translate(190.266 3.77344)"/>
</clipPath>
<clipPath id="clip1_724_94774">
<rect width="7.73438" height="7.73438" fill="white" transform="translate(88.9453 3)"/>
</clipPath>
</defs>
</svg>
