<svg width="43" height="46" viewBox="0 0 43 46" fill="none" xmlns="http://www.w3.org/2000/svg">
<path d="M19.3115 0.657227L25.9945 6.4992L32.6774 0.657227H19.3115Z" fill="#E21860"/>
<path d="M40.0382 7.22168L17.4041 27.0075L3.25588 14.6463L0.976074 16.6262L17.4041 30.9869L42.3255 9.20157L40.0382 7.22168Z" fill="white"/>
<path d="M40.0382 14.2886L17.4041 34.0744L3.25588 21.7132L0.976074 23.693L17.4041 38.0538L42.3255 16.2685L40.0382 14.2886Z" fill="white"/>
<path d="M40.0382 21.4067L17.4041 41.1926L3.25588 28.8313L0.976074 30.8112L17.4041 45.1719L42.3255 23.3866L40.0382 21.4067Z" fill="white"/>
<path d="M7.97023 13.8105L17.395 22.0493L18.5804 21.0131L9.15558 12.7744L7.97023 13.8105Z" fill="white"/>
<path d="M11.5254 10.7153L20.9502 18.9541L22.1355 17.9179L12.7108 9.67915L11.5254 10.7153Z" fill="white"/>
<path d="M17.3751 9.61188L24.5029 15.8428L25.6883 14.8066L18.5604 8.57571L17.3751 9.61188Z" fill="white"/>
</svg>
